<mxfile host="app.diagrams.net" modified="2024-01-30T15:24:07.094Z" agent="Mozilla/5.0 (Windows NT 10.0; Win64; x64) AppleWebKit/537.36 (KHTML, like Gecko) Chrome/120.0.0.0 Safari/537.36" etag="coXMyu5gNVpsiCTrum1_" version="23.0.2" type="device">
  <diagram name="Pagina-1" id="seG2TezbrGPg8tv7P6Yc">
    <mxGraphModel dx="766" dy="305" grid="1" gridSize="10" guides="1" tooltips="1" connect="1" arrows="1" fold="1" page="1" pageScale="1" pageWidth="827" pageHeight="1169" math="0" shadow="0">
      <root>
        <mxCell id="0" />
        <mxCell id="1" parent="0" />
        <mxCell id="wjuAdJFFHyzH8bmCZzNl-2" value="" style="ellipse;html=1;shape=startState;fillColor=#000000;strokeColor=#ff0000;" parent="1" vertex="1">
          <mxGeometry x="200" y="62" width="30" height="30" as="geometry" />
        </mxCell>
        <mxCell id="wjuAdJFFHyzH8bmCZzNl-4" value="&lt;font style=&quot;font-size: 14px;&quot;&gt;Create Tournament&lt;/font&gt;" style="text;html=1;align=center;verticalAlign=middle;resizable=0;points=[];autosize=1;strokeColor=none;fillColor=none;" parent="1" vertex="1">
          <mxGeometry x="67.5" y="39" width="140" height="30" as="geometry" />
        </mxCell>
        <mxCell id="wjuAdJFFHyzH8bmCZzNl-8" value="*" style="text;html=1;align=center;verticalAlign=middle;resizable=0;points=[];autosize=1;strokeColor=none;fillColor=none;" parent="1" vertex="1">
          <mxGeometry x="528" y="74" width="30" height="30" as="geometry" />
        </mxCell>
        <mxCell id="wjuAdJFFHyzH8bmCZzNl-9" value="" style="ellipse;html=1;shape=startState;fillColor=#000000;strokeColor=#ff0000;" parent="1" vertex="1">
          <mxGeometry x="610" y="114" width="30" height="30" as="geometry" />
        </mxCell>
        <mxCell id="R6FAV-9Cmw2DLih2I1j_-4" value="&lt;font style=&quot;font-size: 11px;&quot;&gt;Log In&lt;/font&gt;" style="rounded=0;whiteSpace=wrap;html=1;" parent="1" vertex="1">
          <mxGeometry x="165.5" y="129" width="99" height="40" as="geometry" />
        </mxCell>
        <mxCell id="R6FAV-9Cmw2DLih2I1j_-6" value="" style="endArrow=classic;html=1;rounded=0;exitX=0.496;exitY=0.937;exitDx=0;exitDy=0;exitPerimeter=0;" parent="1" source="wjuAdJFFHyzH8bmCZzNl-2" edge="1">
          <mxGeometry width="50" height="50" relative="1" as="geometry">
            <mxPoint x="219" y="89" as="sourcePoint" />
            <mxPoint x="215" y="129" as="targetPoint" />
          </mxGeometry>
        </mxCell>
        <mxCell id="R6FAV-9Cmw2DLih2I1j_-9" value="&lt;font style=&quot;font-size: 14px;&quot;&gt;Log In&lt;/font&gt;" style="text;html=1;align=center;verticalAlign=middle;resizable=0;points=[];autosize=1;strokeColor=none;fillColor=none;" parent="1" vertex="1">
          <mxGeometry x="548" y="84" width="60" height="30" as="geometry" />
        </mxCell>
        <mxCell id="tBoRFY9E0ur1svYTMh_a-1" value="" style="endArrow=classic;html=1;rounded=0;exitX=0.5;exitY=1;exitDx=0;exitDy=0;" parent="1" source="wjuAdJFFHyzH8bmCZzNl-9" edge="1">
          <mxGeometry width="50" height="50" relative="1" as="geometry">
            <mxPoint x="395" y="224" as="sourcePoint" />
            <mxPoint x="625" y="194" as="targetPoint" />
          </mxGeometry>
        </mxCell>
        <mxCell id="tBoRFY9E0ur1svYTMh_a-4" value="" style="rhombus;whiteSpace=wrap;html=1;" parent="1" vertex="1">
          <mxGeometry x="605" y="194" width="40" height="35" as="geometry" />
        </mxCell>
        <mxCell id="tBoRFY9E0ur1svYTMh_a-5" value="" style="endArrow=classic;html=1;rounded=0;exitX=0.5;exitY=1;exitDx=0;exitDy=0;entryX=0.5;entryY=0;entryDx=0;entryDy=0;" parent="1" edge="1">
          <mxGeometry width="50" height="50" relative="1" as="geometry">
            <mxPoint x="624.8399999999999" y="229" as="sourcePoint" />
            <mxPoint x="625" y="284" as="targetPoint" />
          </mxGeometry>
        </mxCell>
        <mxCell id="wjuAdJFFHyzH8bmCZzNl-7" value="*" style="text;html=1;align=center;verticalAlign=middle;resizable=0;points=[];autosize=1;strokeColor=none;fillColor=none;" parent="1" vertex="1">
          <mxGeometry x="226" y="129" width="30" height="30" as="geometry" />
        </mxCell>
        <mxCell id="tBoRFY9E0ur1svYTMh_a-8" value="" style="endArrow=classic;html=1;rounded=0;exitX=0.5;exitY=1;exitDx=0;exitDy=0;" parent="1" edge="1">
          <mxGeometry width="50" height="50" relative="1" as="geometry">
            <mxPoint x="625" y="324" as="sourcePoint" />
            <mxPoint x="625" y="384" as="targetPoint" />
          </mxGeometry>
        </mxCell>
        <mxCell id="tBoRFY9E0ur1svYTMh_a-10" value="" style="endArrow=classic;html=1;rounded=0;exitX=0.5;exitY=1;exitDx=0;exitDy=0;entryX=0.5;entryY=0;entryDx=0;entryDy=0;" parent="1" edge="1">
          <mxGeometry width="50" height="50" relative="1" as="geometry">
            <mxPoint x="625" y="423.9999999999999" as="sourcePoint" />
            <mxPoint x="625" y="486" as="targetPoint" />
          </mxGeometry>
        </mxCell>
        <mxCell id="tBoRFY9E0ur1svYTMh_a-11" value="" style="rhombus;whiteSpace=wrap;html=1;" parent="1" vertex="1">
          <mxGeometry x="605" y="486" width="40" height="35" as="geometry" />
        </mxCell>
        <mxCell id="tBoRFY9E0ur1svYTMh_a-13" value="" style="endArrow=classic;html=1;rounded=0;exitX=1;exitY=0.5;exitDx=0;exitDy=0;entryX=0.5;entryY=0;entryDx=0;entryDy=0;" parent="1" source="tBoRFY9E0ur1svYTMh_a-11" edge="1">
          <mxGeometry width="50" height="50" relative="1" as="geometry">
            <mxPoint x="625" y="504" as="sourcePoint" />
            <mxPoint x="712" y="534" as="targetPoint" />
            <Array as="points">
              <mxPoint x="712" y="504" />
            </Array>
          </mxGeometry>
        </mxCell>
        <mxCell id="tBoRFY9E0ur1svYTMh_a-14" value="&lt;font style=&quot;font-size: 10px;&quot;&gt;[not authorized]&lt;/font&gt;" style="text;html=1;align=center;verticalAlign=middle;resizable=0;points=[];autosize=1;strokeColor=none;fillColor=none;" parent="1" vertex="1">
          <mxGeometry x="640" y="474" width="90" height="30" as="geometry" />
        </mxCell>
        <mxCell id="tBoRFY9E0ur1svYTMh_a-16" value="" style="endArrow=classic;html=1;rounded=0;exitX=0.5;exitY=1;exitDx=0;exitDy=0;" parent="1" edge="1">
          <mxGeometry width="50" height="50" relative="1" as="geometry">
            <mxPoint x="712" y="574" as="sourcePoint" />
            <mxPoint x="713" y="634" as="targetPoint" />
          </mxGeometry>
        </mxCell>
        <mxCell id="tBoRFY9E0ur1svYTMh_a-18" value="" style="endArrow=classic;html=1;rounded=0;entryX=0.5;entryY=1;entryDx=0;entryDy=0;entryPerimeter=0;exitX=0.5;exitY=1;exitDx=0;exitDy=0;" parent="1" source="QjHlwnnP2B7WLTLlMxgR-12" edge="1">
          <mxGeometry width="50" height="50" relative="1" as="geometry">
            <mxPoint x="683" y="694" as="sourcePoint" />
            <mxPoint x="805" y="434" as="targetPoint" />
            <Array as="points">
              <mxPoint x="713" y="724" />
              <mxPoint x="742" y="724" />
              <mxPoint x="805" y="724" />
            </Array>
          </mxGeometry>
        </mxCell>
        <mxCell id="OhPLSJKsHtrkxZUvNOaD-3" value="" style="verticalLabelPosition=bottom;verticalAlign=top;html=1;shape=mxgraph.flowchart.collate;" parent="1" vertex="1">
          <mxGeometry x="795" y="404" width="20" height="30" as="geometry" />
        </mxCell>
        <mxCell id="OhPLSJKsHtrkxZUvNOaD-4" value="&lt;font style=&quot;font-size: 10px;&quot;&gt;Wait 10 seconds&lt;/font&gt;" style="text;html=1;align=center;verticalAlign=middle;resizable=0;points=[];autosize=1;strokeColor=none;fillColor=none;" parent="1" vertex="1">
          <mxGeometry x="699" y="403" width="100" height="30" as="geometry" />
        </mxCell>
        <mxCell id="OhPLSJKsHtrkxZUvNOaD-5" value="" style="endArrow=classic;html=1;rounded=0;entryX=1;entryY=0.5;entryDx=0;entryDy=0;exitX=0.5;exitY=0;exitDx=0;exitDy=0;exitPerimeter=0;" parent="1" source="OhPLSJKsHtrkxZUvNOaD-3" target="tBoRFY9E0ur1svYTMh_a-4" edge="1">
          <mxGeometry width="50" height="50" relative="1" as="geometry">
            <mxPoint x="805" y="484" as="sourcePoint" />
            <mxPoint x="675" y="214" as="targetPoint" />
            <Array as="points">
              <mxPoint x="805" y="212" />
            </Array>
          </mxGeometry>
        </mxCell>
        <mxCell id="OhPLSJKsHtrkxZUvNOaD-7" value="" style="endArrow=classic;html=1;rounded=0;exitX=0;exitY=0.5;exitDx=0;exitDy=0;entryX=0.5;entryY=0;entryDx=0;entryDy=0;" parent="1" source="tBoRFY9E0ur1svYTMh_a-11" edge="1">
          <mxGeometry width="50" height="50" relative="1" as="geometry">
            <mxPoint x="605.0000000000002" y="521.5" as="sourcePoint" />
            <mxPoint x="542" y="534" as="targetPoint" />
            <Array as="points">
              <mxPoint x="542" y="504" />
            </Array>
          </mxGeometry>
        </mxCell>
        <mxCell id="OhPLSJKsHtrkxZUvNOaD-9" value="&lt;font style=&quot;font-size: 10px;&quot;&gt;[authorized]&lt;/font&gt;" style="text;html=1;align=center;verticalAlign=middle;resizable=0;points=[];autosize=1;strokeColor=none;fillColor=none;" parent="1" vertex="1">
          <mxGeometry x="530" y="474" width="80" height="30" as="geometry" />
        </mxCell>
        <mxCell id="OhPLSJKsHtrkxZUvNOaD-12" value="" style="endArrow=classic;html=1;rounded=0;exitX=0.5;exitY=1;exitDx=0;exitDy=0;" parent="1" edge="1">
          <mxGeometry width="50" height="50" relative="1" as="geometry">
            <mxPoint x="542" y="574" as="sourcePoint" />
            <mxPoint x="542" y="633" as="targetPoint" />
          </mxGeometry>
        </mxCell>
        <mxCell id="OhPLSJKsHtrkxZUvNOaD-14" value="" style="endArrow=classic;html=1;rounded=0;exitX=0.5;exitY=1;exitDx=0;exitDy=0;entryX=0.5;entryY=0;entryDx=0;entryDy=0;" parent="1" edge="1">
          <mxGeometry width="50" height="50" relative="1" as="geometry">
            <mxPoint x="542" y="672.9999999999999" as="sourcePoint" />
            <mxPoint x="625" y="773" as="targetPoint" />
            <Array as="points">
              <mxPoint x="542" y="723" />
              <mxPoint x="625" y="723" />
            </Array>
          </mxGeometry>
        </mxCell>
        <mxCell id="OhPLSJKsHtrkxZUvNOaD-15" value="" style="ellipse;html=1;shape=endState;fillColor=#000000;strokeColor=#ff0000;" parent="1" vertex="1">
          <mxGeometry x="610" y="887.5" width="30" height="30" as="geometry" />
        </mxCell>
        <mxCell id="OhPLSJKsHtrkxZUvNOaD-16" value="" style="endArrow=classic;html=1;rounded=0;exitX=0.5;exitY=1;exitDx=0;exitDy=0;" parent="1" edge="1">
          <mxGeometry width="50" height="50" relative="1" as="geometry">
            <mxPoint x="625" y="813.5" as="sourcePoint" />
            <mxPoint x="625" y="884" as="targetPoint" />
          </mxGeometry>
        </mxCell>
        <mxCell id="vmBrel4mYg4guFWGK2PO-12" value="" style="rhombus;whiteSpace=wrap;html=1;" parent="1" vertex="1">
          <mxGeometry x="196" y="687" width="40" height="35" as="geometry" />
        </mxCell>
        <mxCell id="vmBrel4mYg4guFWGK2PO-14" value="" style="endArrow=classic;html=1;rounded=0;entryX=0.5;entryY=0;entryDx=0;entryDy=0;exitX=1;exitY=0.5;exitDx=0;exitDy=0;" parent="1" source="vmBrel4mYg4guFWGK2PO-12" target="QjHlwnnP2B7WLTLlMxgR-5" edge="1">
          <mxGeometry width="50" height="50" relative="1" as="geometry">
            <mxPoint x="238" y="701" as="sourcePoint" />
            <mxPoint x="308.9999999999999" y="743" as="targetPoint" />
            <Array as="points">
              <mxPoint x="340" y="705" />
            </Array>
          </mxGeometry>
        </mxCell>
        <mxCell id="vmBrel4mYg4guFWGK2PO-15" value="&lt;font style=&quot;font-size: 10px;&quot;&gt;[empty fields OR inconsistent dates OR&lt;br&gt;tournament already exists]&lt;/font&gt;" style="text;html=1;align=center;verticalAlign=middle;resizable=0;points=[];autosize=1;strokeColor=none;fillColor=none;" parent="1" vertex="1">
          <mxGeometry x="220" y="665" width="200" height="40" as="geometry" />
        </mxCell>
        <mxCell id="vmBrel4mYg4guFWGK2PO-17" value="" style="endArrow=classic;html=1;rounded=0;exitX=0;exitY=0.5;exitDx=0;exitDy=0;entryX=0.5;entryY=0;entryDx=0;entryDy=0;" parent="1" source="vmBrel4mYg4guFWGK2PO-12" edge="1">
          <mxGeometry width="50" height="50" relative="1" as="geometry">
            <mxPoint x="182" y="702.5" as="sourcePoint" />
            <mxPoint x="118" y="743" as="targetPoint" />
            <Array as="points">
              <mxPoint x="118" y="705" />
            </Array>
          </mxGeometry>
        </mxCell>
        <mxCell id="vmBrel4mYg4guFWGK2PO-18" value="&lt;font style=&quot;font-size: 10px;&quot;&gt;[filled fields AND consistent dates AND&lt;br&gt;tournament does not already exists]&lt;/font&gt;" style="text;html=1;align=center;verticalAlign=middle;resizable=0;points=[];autosize=1;strokeColor=none;fillColor=none;" parent="1" vertex="1">
          <mxGeometry x="17.5" y="666" width="190" height="40" as="geometry" />
        </mxCell>
        <mxCell id="vmBrel4mYg4guFWGK2PO-22" value="" style="shape=line;html=1;strokeWidth=6;strokeColor=#000000;fillColor=#000000;" parent="1" vertex="1">
          <mxGeometry x="36" y="741" width="164" height="10" as="geometry" />
        </mxCell>
        <mxCell id="vmBrel4mYg4guFWGK2PO-28" value="" style="edgeStyle=orthogonalEdgeStyle;html=1;verticalAlign=bottom;endArrow=open;endSize=8;strokeColor=#000000;rounded=0;fillColor=#000000;entryX=0.5;entryY=0;entryDx=0;entryDy=0;exitX=0.898;exitY=0.759;exitDx=0;exitDy=0;exitPerimeter=0;" parent="1" source="vmBrel4mYg4guFWGK2PO-22" edge="1">
          <mxGeometry relative="1" as="geometry">
            <mxPoint x="183" y="793" as="targetPoint" />
            <mxPoint x="174" y="749" as="sourcePoint" />
          </mxGeometry>
        </mxCell>
        <mxCell id="vmBrel4mYg4guFWGK2PO-30" value="" style="edgeStyle=orthogonalEdgeStyle;html=1;verticalAlign=bottom;endArrow=open;endSize=8;strokeColor=#000000;rounded=0;entryX=0.5;entryY=0;entryDx=0;entryDy=0;exitX=0.127;exitY=0.796;exitDx=0;exitDy=0;exitPerimeter=0;" parent="1" source="vmBrel4mYg4guFWGK2PO-22" edge="1">
          <mxGeometry relative="1" as="geometry">
            <mxPoint x="57" y="793" as="targetPoint" />
            <mxPoint x="26" y="751" as="sourcePoint" />
          </mxGeometry>
        </mxCell>
        <mxCell id="vmBrel4mYg4guFWGK2PO-33" value="&lt;font style=&quot;font-size: 11px;&quot;&gt;Select Create Tournament&lt;/font&gt;" style="rounded=0;whiteSpace=wrap;html=1;" parent="1" vertex="1">
          <mxGeometry x="165.5" y="209" width="99" height="40" as="geometry" />
        </mxCell>
        <mxCell id="vmBrel4mYg4guFWGK2PO-34" value="&lt;font style=&quot;font-size: 11px;&quot;&gt;Display Form&lt;/font&gt;" style="rounded=0;whiteSpace=wrap;html=1;" parent="1" vertex="1">
          <mxGeometry x="165.5" y="289" width="99" height="40" as="geometry" />
        </mxCell>
        <mxCell id="vmBrel4mYg4guFWGK2PO-37" value="&lt;font style=&quot;font-size: 11px;&quot;&gt;Enter &lt;u&gt;Tournament Details&lt;/u&gt;&lt;/font&gt;" style="rounded=0;whiteSpace=wrap;html=1;" parent="1" vertex="1">
          <mxGeometry x="166.5" y="445" width="99" height="40" as="geometry" />
        </mxCell>
        <mxCell id="vmBrel4mYg4guFWGK2PO-39" value="&lt;font style=&quot;font-size: 11px;&quot;&gt;Select Create Button&lt;/font&gt;" style="rounded=0;whiteSpace=wrap;html=1;" parent="1" vertex="1">
          <mxGeometry x="166.5" y="525" width="99" height="40" as="geometry" />
        </mxCell>
        <mxCell id="vmBrel4mYg4guFWGK2PO-40" value="&lt;font style=&quot;font-size: 11px;&quot;&gt;Verify &lt;u&gt;Tournament Details&lt;/u&gt;&lt;/font&gt;" style="rounded=0;whiteSpace=wrap;html=1;" parent="1" vertex="1">
          <mxGeometry x="166.5" y="605" width="99" height="40" as="geometry" />
        </mxCell>
        <mxCell id="vmBrel4mYg4guFWGK2PO-43" value="&lt;font style=&quot;font-size: 11px;&quot;&gt;Notify Customers&amp;nbsp;&lt;/font&gt;" style="rounded=0;whiteSpace=wrap;html=1;" parent="1" vertex="1">
          <mxGeometry x="134" y="793" width="99" height="40" as="geometry" />
        </mxCell>
        <mxCell id="vmBrel4mYg4guFWGK2PO-44" value="&lt;font style=&quot;font-size: 11px;&quot;&gt;Create New Tournament&lt;/font&gt;" style="rounded=0;whiteSpace=wrap;html=1;" parent="1" vertex="1">
          <mxGeometry x="6" y="793" width="99" height="40" as="geometry" />
        </mxCell>
        <mxCell id="vmBrel4mYg4guFWGK2PO-45" value="&lt;font style=&quot;font-size: 11px;&quot;&gt;Display Correct Conclusion&lt;/font&gt;" style="rounded=0;whiteSpace=wrap;html=1;" parent="1" vertex="1">
          <mxGeometry x="68.5" y="925" width="99" height="40" as="geometry" />
        </mxCell>
        <mxCell id="vmBrel4mYg4guFWGK2PO-46" value="" style="endArrow=classic;html=1;rounded=0;exitX=0.5;exitY=1;exitDx=0;exitDy=0;" parent="1" edge="1">
          <mxGeometry width="50" height="50" relative="1" as="geometry">
            <mxPoint x="214.71" y="169" as="sourcePoint" />
            <mxPoint x="214.71" y="209" as="targetPoint" />
          </mxGeometry>
        </mxCell>
        <mxCell id="vmBrel4mYg4guFWGK2PO-47" value="" style="endArrow=classic;html=1;rounded=0;exitX=0.5;exitY=1;exitDx=0;exitDy=0;" parent="1" edge="1">
          <mxGeometry width="50" height="50" relative="1" as="geometry">
            <mxPoint x="214.71" y="249" as="sourcePoint" />
            <mxPoint x="214.71" y="289" as="targetPoint" />
          </mxGeometry>
        </mxCell>
        <mxCell id="vmBrel4mYg4guFWGK2PO-48" value="" style="endArrow=classic;html=1;rounded=0;exitX=0.5;exitY=1;exitDx=0;exitDy=0;" parent="1" edge="1">
          <mxGeometry width="50" height="50" relative="1" as="geometry">
            <mxPoint x="214.71" y="329" as="sourcePoint" />
            <mxPoint x="214.71" y="369" as="targetPoint" />
          </mxGeometry>
        </mxCell>
        <mxCell id="vmBrel4mYg4guFWGK2PO-49" value="" style="endArrow=classic;html=1;rounded=0;exitX=0.5;exitY=1;exitDx=0;exitDy=0;" parent="1" edge="1">
          <mxGeometry width="50" height="50" relative="1" as="geometry">
            <mxPoint x="215.71" y="485" as="sourcePoint" />
            <mxPoint x="215.71" y="525" as="targetPoint" />
          </mxGeometry>
        </mxCell>
        <mxCell id="vmBrel4mYg4guFWGK2PO-50" value="" style="endArrow=classic;html=1;rounded=0;exitX=0.5;exitY=1;exitDx=0;exitDy=0;" parent="1" edge="1">
          <mxGeometry width="50" height="50" relative="1" as="geometry">
            <mxPoint x="215.71" y="565" as="sourcePoint" />
            <mxPoint x="215.71" y="605" as="targetPoint" />
          </mxGeometry>
        </mxCell>
        <mxCell id="vmBrel4mYg4guFWGK2PO-51" value="" style="endArrow=classic;html=1;rounded=0;exitX=0.5;exitY=1;exitDx=0;exitDy=0;entryX=0.5;entryY=0;entryDx=0;entryDy=0;" parent="1" target="vmBrel4mYg4guFWGK2PO-12" edge="1">
          <mxGeometry width="50" height="50" relative="1" as="geometry">
            <mxPoint x="215.72" y="645" as="sourcePoint" />
            <mxPoint x="215.72" y="685" as="targetPoint" />
          </mxGeometry>
        </mxCell>
        <mxCell id="QjHlwnnP2B7WLTLlMxgR-1" value="" style="shape=line;html=1;strokeWidth=6;strokeColor=#000000;fillColor=#000000;" parent="1" vertex="1">
          <mxGeometry x="36" y="877" width="164" height="10" as="geometry" />
        </mxCell>
        <mxCell id="QjHlwnnP2B7WLTLlMxgR-2" value="" style="edgeStyle=orthogonalEdgeStyle;html=1;verticalAlign=bottom;endArrow=open;endSize=8;strokeColor=#000000;rounded=0;entryX=0.5;entryY=0;entryDx=0;entryDy=0;exitX=0.128;exitY=0.636;exitDx=0;exitDy=0;exitPerimeter=0;" parent="1" edge="1">
          <mxGeometry relative="1" as="geometry">
            <mxPoint x="55.28999999999999" y="879" as="targetPoint" />
            <mxPoint x="55.28999999999999" y="833" as="sourcePoint" />
          </mxGeometry>
        </mxCell>
        <mxCell id="QjHlwnnP2B7WLTLlMxgR-3" value="" style="edgeStyle=orthogonalEdgeStyle;html=1;verticalAlign=bottom;endArrow=open;endSize=8;strokeColor=#000000;rounded=0;exitX=0.128;exitY=0.636;exitDx=0;exitDy=0;exitPerimeter=0;" parent="1" edge="1">
          <mxGeometry relative="1" as="geometry">
            <mxPoint x="182" y="879" as="targetPoint" />
            <mxPoint x="182" y="833" as="sourcePoint" />
          </mxGeometry>
        </mxCell>
        <mxCell id="QjHlwnnP2B7WLTLlMxgR-4" value="" style="endArrow=classic;html=1;rounded=0;exitX=0.5;exitY=1;exitDx=0;exitDy=0;entryX=0.5;entryY=0;entryDx=0;entryDy=0;" parent="1" edge="1">
          <mxGeometry width="50" height="50" relative="1" as="geometry">
            <mxPoint x="117.74000000000001" y="885" as="sourcePoint" />
            <mxPoint x="118.01999999999998" y="925" as="targetPoint" />
          </mxGeometry>
        </mxCell>
        <mxCell id="QjHlwnnP2B7WLTLlMxgR-5" value="" style="rhombus;whiteSpace=wrap;html=1;" parent="1" vertex="1">
          <mxGeometry x="320" y="768" width="40" height="35" as="geometry" />
        </mxCell>
        <mxCell id="QjHlwnnP2B7WLTLlMxgR-6" value="&lt;font style=&quot;font-size: 11px;&quot;&gt;Enter Username and Password&lt;/font&gt;" style="rounded=0;whiteSpace=wrap;html=1;" parent="1" vertex="1">
          <mxGeometry x="575.5" y="284" width="99" height="40" as="geometry" />
        </mxCell>
        <mxCell id="QjHlwnnP2B7WLTLlMxgR-7" value="&lt;font style=&quot;font-size: 11px;&quot;&gt;Verify Username and Password&lt;/font&gt;" style="rounded=0;whiteSpace=wrap;html=1;" parent="1" vertex="1">
          <mxGeometry x="575.5" y="384" width="99" height="40" as="geometry" />
        </mxCell>
        <mxCell id="QjHlwnnP2B7WLTLlMxgR-9" value="&lt;font style=&quot;font-size: 11px;&quot;&gt;Reject Log In&lt;/font&gt;" style="rounded=0;whiteSpace=wrap;html=1;" parent="1" vertex="1">
          <mxGeometry x="663.5" y="534" width="99" height="40" as="geometry" />
        </mxCell>
        <mxCell id="QjHlwnnP2B7WLTLlMxgR-10" value="&lt;font style=&quot;font-size: 11px;&quot;&gt;Set userID&lt;/font&gt;" style="rounded=0;whiteSpace=wrap;html=1;" parent="1" vertex="1">
          <mxGeometry x="492.5" y="633" width="99" height="40" as="geometry" />
        </mxCell>
        <mxCell id="QjHlwnnP2B7WLTLlMxgR-11" value="&lt;font style=&quot;font-size: 11px;&quot;&gt;Update View&lt;/font&gt;" style="rounded=0;whiteSpace=wrap;html=1;" parent="1" vertex="1">
          <mxGeometry x="492.5" y="534" width="99" height="40" as="geometry" />
        </mxCell>
        <mxCell id="QjHlwnnP2B7WLTLlMxgR-12" value="&lt;font style=&quot;font-size: 11px;&quot;&gt;Display Error Message&lt;/font&gt;" style="rounded=0;whiteSpace=wrap;html=1;" parent="1" vertex="1">
          <mxGeometry x="663.5" y="634" width="99" height="40" as="geometry" />
        </mxCell>
        <mxCell id="QjHlwnnP2B7WLTLlMxgR-13" value="&lt;font style=&quot;font-size: 11px;&quot;&gt;Show Home Page&lt;/font&gt;" style="rounded=0;whiteSpace=wrap;html=1;" parent="1" vertex="1">
          <mxGeometry x="575.5" y="773" width="99" height="40" as="geometry" />
        </mxCell>
        <mxCell id="QjHlwnnP2B7WLTLlMxgR-14" value="&lt;font style=&quot;font-size: 11px;&quot;&gt;Display Tournament Already Exists&lt;/font&gt;" style="rounded=0;whiteSpace=wrap;html=1;" parent="1" vertex="1">
          <mxGeometry x="220" y="925" width="99" height="40" as="geometry" />
        </mxCell>
        <mxCell id="QjHlwnnP2B7WLTLlMxgR-15" value="" style="endArrow=classic;html=1;rounded=0;exitX=0;exitY=0.5;exitDx=0;exitDy=0;entryX=0.5;entryY=0;entryDx=0;entryDy=0;" parent="1" source="QjHlwnnP2B7WLTLlMxgR-5" target="QjHlwnnP2B7WLTLlMxgR-14" edge="1">
          <mxGeometry width="50" height="50" relative="1" as="geometry">
            <mxPoint x="340.5" y="785.5" as="sourcePoint" />
            <mxPoint x="300" y="837" as="targetPoint" />
            <Array as="points">
              <mxPoint x="270" y="785" />
            </Array>
          </mxGeometry>
        </mxCell>
        <mxCell id="QjHlwnnP2B7WLTLlMxgR-16" value="" style="rhombus;whiteSpace=wrap;html=1;" parent="1" vertex="1">
          <mxGeometry x="176" y="1017" width="40" height="35" as="geometry" />
        </mxCell>
        <mxCell id="QjHlwnnP2B7WLTLlMxgR-17" value="" style="ellipse;html=1;shape=endState;fillColor=#000000;strokeColor=#ff0000;" parent="1" vertex="1">
          <mxGeometry x="181" y="1109" width="30" height="30" as="geometry" />
        </mxCell>
        <mxCell id="QjHlwnnP2B7WLTLlMxgR-18" value="" style="endArrow=classic;html=1;rounded=0;exitX=0.5;exitY=1;exitDx=0;exitDy=0;" parent="1" source="QjHlwnnP2B7WLTLlMxgR-16" edge="1">
          <mxGeometry width="50" height="50" relative="1" as="geometry">
            <mxPoint x="216.5" y="1065" as="sourcePoint" />
            <mxPoint x="196" y="1106" as="targetPoint" />
          </mxGeometry>
        </mxCell>
        <mxCell id="QjHlwnnP2B7WLTLlMxgR-19" value="" style="endArrow=classic;html=1;rounded=0;exitX=0.5;exitY=1;exitDx=0;exitDy=0;entryX=0;entryY=0.5;entryDx=0;entryDy=0;" parent="1" source="vmBrel4mYg4guFWGK2PO-45" target="QjHlwnnP2B7WLTLlMxgR-16" edge="1">
          <mxGeometry width="50" height="50" relative="1" as="geometry">
            <mxPoint x="127.74000000000001" y="988.5" as="sourcePoint" />
            <mxPoint x="128.01999999999998" y="1028.5" as="targetPoint" />
            <Array as="points">
              <mxPoint x="118" y="1035" />
            </Array>
          </mxGeometry>
        </mxCell>
        <mxCell id="QjHlwnnP2B7WLTLlMxgR-21" value="" style="endArrow=classic;html=1;rounded=0;entryX=1;entryY=0.5;entryDx=0;entryDy=0;exitX=0.5;exitY=1;exitDx=0;exitDy=0;" parent="1" source="QjHlwnnP2B7WLTLlMxgR-14" target="QjHlwnnP2B7WLTLlMxgR-16" edge="1">
          <mxGeometry width="50" height="50" relative="1" as="geometry">
            <mxPoint x="305.5" y="965" as="sourcePoint" />
            <mxPoint x="265.5" y="1025" as="targetPoint" />
            <Array as="points">
              <mxPoint x="270" y="1035" />
            </Array>
          </mxGeometry>
        </mxCell>
        <mxCell id="QjHlwnnP2B7WLTLlMxgR-22" value="&lt;font style=&quot;font-size: 10px;&quot;&gt;[tournament already&lt;br&gt;exists]&lt;/font&gt;" style="text;html=1;align=center;verticalAlign=middle;resizable=0;points=[];autosize=1;strokeColor=none;fillColor=none;" parent="1" vertex="1">
          <mxGeometry x="223" y="748" width="110" height="40" as="geometry" />
        </mxCell>
        <mxCell id="QjHlwnnP2B7WLTLlMxgR-23" value="&lt;font style=&quot;font-size: 10px;&quot;&gt;[tournament does not&lt;br&gt;already exist]&lt;/font&gt;" style="text;html=1;align=center;verticalAlign=middle;resizable=0;points=[];autosize=1;strokeColor=none;fillColor=none;" parent="1" vertex="1">
          <mxGeometry x="341" y="748" width="120" height="40" as="geometry" />
        </mxCell>
        <mxCell id="QjHlwnnP2B7WLTLlMxgR-24" value="&lt;font style=&quot;font-size: 11px;&quot;&gt;Display Error Message&lt;/font&gt;" style="rounded=0;whiteSpace=wrap;html=1;" parent="1" vertex="1">
          <mxGeometry x="360" y="925" width="99" height="40" as="geometry" />
        </mxCell>
        <mxCell id="QjHlwnnP2B7WLTLlMxgR-25" value="" style="endArrow=classic;html=1;rounded=0;exitX=1;exitY=0.5;exitDx=0;exitDy=0;entryX=0.5;entryY=0;entryDx=0;entryDy=0;" parent="1" source="QjHlwnnP2B7WLTLlMxgR-5" target="QjHlwnnP2B7WLTLlMxgR-24" edge="1">
          <mxGeometry width="50" height="50" relative="1" as="geometry">
            <mxPoint x="340" y="796" as="sourcePoint" />
            <mxPoint x="290" y="935" as="targetPoint" />
            <Array as="points">
              <mxPoint x="410" y="785" />
            </Array>
          </mxGeometry>
        </mxCell>
        <mxCell id="QjHlwnnP2B7WLTLlMxgR-28" value="" style="endArrow=classic;html=1;rounded=0;exitX=0.5;exitY=1;exitDx=0;exitDy=0;" parent="1" edge="1">
          <mxGeometry width="50" height="50" relative="1" as="geometry">
            <mxPoint x="215.23000000000002" y="404" as="sourcePoint" />
            <mxPoint x="215.23000000000002" y="444" as="targetPoint" />
          </mxGeometry>
        </mxCell>
        <mxCell id="QjHlwnnP2B7WLTLlMxgR-29" value="" style="rhombus;whiteSpace=wrap;html=1;" parent="1" vertex="1">
          <mxGeometry x="195" y="369" width="40" height="35" as="geometry" />
        </mxCell>
        <mxCell id="QjHlwnnP2B7WLTLlMxgR-30" value="" style="endArrow=classic;html=1;rounded=0;exitX=0.5;exitY=1;exitDx=0;exitDy=0;entryX=0.5;entryY=1;entryDx=0;entryDy=0;entryPerimeter=0;" parent="1" source="QjHlwnnP2B7WLTLlMxgR-24" target="QjHlwnnP2B7WLTLlMxgR-31" edge="1">
          <mxGeometry width="50" height="50" relative="1" as="geometry">
            <mxPoint x="450" y="814" as="sourcePoint" />
            <mxPoint x="400" y="520" as="targetPoint" />
            <Array as="points">
              <mxPoint x="410" y="1020" />
              <mxPoint x="480" y="1020" />
              <mxPoint x="480" y="520" />
            </Array>
          </mxGeometry>
        </mxCell>
        <mxCell id="QjHlwnnP2B7WLTLlMxgR-31" value="" style="verticalLabelPosition=bottom;verticalAlign=top;html=1;shape=mxgraph.flowchart.collate;" parent="1" vertex="1">
          <mxGeometry x="470" y="434" width="20" height="30" as="geometry" />
        </mxCell>
        <mxCell id="QjHlwnnP2B7WLTLlMxgR-32" value="&lt;font style=&quot;font-size: 10px;&quot;&gt;Wait 10 seconds&lt;/font&gt;" style="text;html=1;align=center;verticalAlign=middle;resizable=0;points=[];autosize=1;strokeColor=none;fillColor=none;" parent="1" vertex="1">
          <mxGeometry x="373" y="433" width="100" height="30" as="geometry" />
        </mxCell>
        <mxCell id="QjHlwnnP2B7WLTLlMxgR-33" value="" style="endArrow=classic;html=1;rounded=0;exitX=0.5;exitY=0;exitDx=0;exitDy=0;entryX=1;entryY=0.5;entryDx=0;entryDy=0;exitPerimeter=0;" parent="1" source="QjHlwnnP2B7WLTLlMxgR-31" target="QjHlwnnP2B7WLTLlMxgR-29" edge="1">
          <mxGeometry width="50" height="50" relative="1" as="geometry">
            <mxPoint x="419.20000000000005" y="369" as="sourcePoint" />
            <mxPoint x="419.20000000000005" y="409" as="targetPoint" />
            <Array as="points">
              <mxPoint x="480" y="387" />
            </Array>
          </mxGeometry>
        </mxCell>
      </root>
    </mxGraphModel>
  </diagram>
</mxfile>
